<mxfile host="app.diagrams.net" modified="2023-10-26T21:54:19.729Z" agent="Mozilla/5.0 (Windows NT 10.0; Win64; x64) AppleWebKit/537.36 (KHTML, like Gecko) Chrome/118.0.0.0 Safari/537.36" etag="cuWnGWzBlAy_3R-QG8GU" version="22.0.8" type="github">
  <diagram name="Page-1" id="dXTh_PI_UYBEd650C4bF">
    <mxGraphModel dx="1434" dy="802" grid="1" gridSize="10" guides="1" tooltips="1" connect="1" arrows="1" fold="1" page="1" pageScale="1" pageWidth="850" pageHeight="1100" math="0" shadow="0">
      <root>
        <mxCell id="0" />
        <mxCell id="1" parent="0" />
        <mxCell id="kCEidRXpe-iNgRJde4r5-1" value="" style="ellipse;whiteSpace=wrap;html=1;aspect=fixed;" vertex="1" parent="1">
          <mxGeometry x="425" y="90" width="30" height="30" as="geometry" />
        </mxCell>
        <mxCell id="kCEidRXpe-iNgRJde4r5-2" value="Staff Login" style="rounded=1;whiteSpace=wrap;html=1;fontSize=12;glass=0;strokeWidth=1;shadow=0;perimeter=rectanglePerimeter;" vertex="1" parent="1">
          <mxGeometry x="380" y="150" width="120" height="40" as="geometry" />
        </mxCell>
        <mxCell id="kCEidRXpe-iNgRJde4r5-3" style="edgeStyle=orthogonalEdgeStyle;rounded=0;orthogonalLoop=1;jettySize=auto;html=1;exitX=0.5;exitY=1;exitDx=0;exitDy=0;entryX=0.5;entryY=0;entryDx=0;entryDy=0;" edge="1" parent="1" target="kCEidRXpe-iNgRJde4r5-2">
          <mxGeometry relative="1" as="geometry">
            <mxPoint x="440" y="120" as="sourcePoint" />
          </mxGeometry>
        </mxCell>
        <mxCell id="kCEidRXpe-iNgRJde4r5-4" value="" style="strokeWidth=2;html=1;shape=mxgraph.flowchart.decision;whiteSpace=wrap;" vertex="1" parent="1">
          <mxGeometry x="410" y="220" width="60" height="50" as="geometry" />
        </mxCell>
        <mxCell id="kCEidRXpe-iNgRJde4r5-5" style="edgeStyle=orthogonalEdgeStyle;rounded=0;orthogonalLoop=1;jettySize=auto;html=1;exitX=0.5;exitY=1;exitDx=0;exitDy=0;entryX=0.5;entryY=0;entryDx=0;entryDy=0;entryPerimeter=0;" edge="1" parent="1" source="kCEidRXpe-iNgRJde4r5-2" target="kCEidRXpe-iNgRJde4r5-4">
          <mxGeometry relative="1" as="geometry" />
        </mxCell>
        <mxCell id="kCEidRXpe-iNgRJde4r5-34" style="edgeStyle=orthogonalEdgeStyle;rounded=0;orthogonalLoop=1;jettySize=auto;html=1;exitX=0.5;exitY=1;exitDx=0;exitDy=0;entryX=0.5;entryY=0;entryDx=0;entryDy=0;" edge="1" parent="1" source="kCEidRXpe-iNgRJde4r5-6" target="kCEidRXpe-iNgRJde4r5-13">
          <mxGeometry relative="1" as="geometry" />
        </mxCell>
        <mxCell id="kCEidRXpe-iNgRJde4r5-6" value="Select Consultations" style="rounded=1;whiteSpace=wrap;html=1;glass=0;strokeWidth=1;shadow=0;" vertex="1" parent="1">
          <mxGeometry x="320" y="300" width="120" height="40" as="geometry" />
        </mxCell>
        <mxCell id="kCEidRXpe-iNgRJde4r5-7" style="edgeStyle=orthogonalEdgeStyle;rounded=0;orthogonalLoop=1;jettySize=auto;html=1;exitX=1;exitY=0.5;exitDx=0;exitDy=0;entryX=1;entryY=0.25;entryDx=0;entryDy=0;" edge="1" parent="1" source="kCEidRXpe-iNgRJde4r5-8" target="kCEidRXpe-iNgRJde4r5-2">
          <mxGeometry relative="1" as="geometry" />
        </mxCell>
        <mxCell id="kCEidRXpe-iNgRJde4r5-8" value="Error/Retry/Account Recovery" style="rounded=1;whiteSpace=wrap;html=1;glass=0;strokeWidth=1;shadow=0;" vertex="1" parent="1">
          <mxGeometry x="470" y="300" width="120" height="40" as="geometry" />
        </mxCell>
        <mxCell id="kCEidRXpe-iNgRJde4r5-9" style="edgeStyle=orthogonalEdgeStyle;rounded=0;orthogonalLoop=1;jettySize=auto;html=1;exitX=0;exitY=0.5;exitDx=0;exitDy=0;exitPerimeter=0;entryX=0.167;entryY=0;entryDx=0;entryDy=0;entryPerimeter=0;" edge="1" parent="1" source="kCEidRXpe-iNgRJde4r5-4" target="kCEidRXpe-iNgRJde4r5-6">
          <mxGeometry relative="1" as="geometry" />
        </mxCell>
        <mxCell id="kCEidRXpe-iNgRJde4r5-10" value="Successful" style="edgeLabel;html=1;align=center;verticalAlign=middle;resizable=0;points=[];" vertex="1" connectable="0" parent="kCEidRXpe-iNgRJde4r5-9">
          <mxGeometry x="-0.504" y="3" relative="1" as="geometry">
            <mxPoint as="offset" />
          </mxGeometry>
        </mxCell>
        <mxCell id="kCEidRXpe-iNgRJde4r5-11" style="edgeStyle=orthogonalEdgeStyle;rounded=0;orthogonalLoop=1;jettySize=auto;html=1;exitX=1;exitY=0.5;exitDx=0;exitDy=0;exitPerimeter=0;entryX=0.65;entryY=-0.1;entryDx=0;entryDy=0;entryPerimeter=0;" edge="1" parent="1" source="kCEidRXpe-iNgRJde4r5-4" target="kCEidRXpe-iNgRJde4r5-8">
          <mxGeometry relative="1" as="geometry" />
        </mxCell>
        <mxCell id="kCEidRXpe-iNgRJde4r5-12" value="Unsuccessful" style="edgeLabel;html=1;align=center;verticalAlign=middle;resizable=0;points=[];" vertex="1" connectable="0" parent="kCEidRXpe-iNgRJde4r5-11">
          <mxGeometry x="-0.4419" relative="1" as="geometry">
            <mxPoint as="offset" />
          </mxGeometry>
        </mxCell>
        <mxCell id="kCEidRXpe-iNgRJde4r5-13" value="Review Consultation&amp;nbsp;" style="rounded=1;whiteSpace=wrap;html=1;glass=0;strokeWidth=1;shadow=0;" vertex="1" parent="1">
          <mxGeometry x="320" y="400" width="120" height="40" as="geometry" />
        </mxCell>
        <mxCell id="kCEidRXpe-iNgRJde4r5-14" style="edgeStyle=orthogonalEdgeStyle;rounded=0;orthogonalLoop=1;jettySize=auto;html=1;exitX=1;exitY=0.5;exitDx=0;exitDy=0;exitPerimeter=0;entryX=0.5;entryY=0;entryDx=0;entryDy=0;entryPerimeter=0;" edge="1" parent="1" source="kCEidRXpe-iNgRJde4r5-16" target="kCEidRXpe-iNgRJde4r5-28">
          <mxGeometry relative="1" as="geometry">
            <mxPoint x="470" y="555" as="targetPoint" />
          </mxGeometry>
        </mxCell>
        <mxCell id="kCEidRXpe-iNgRJde4r5-15" value="Denied" style="edgeLabel;html=1;align=center;verticalAlign=middle;resizable=0;points=[];" vertex="1" connectable="0" parent="kCEidRXpe-iNgRJde4r5-14">
          <mxGeometry x="-0.5652" y="-1" relative="1" as="geometry">
            <mxPoint as="offset" />
          </mxGeometry>
        </mxCell>
        <mxCell id="kCEidRXpe-iNgRJde4r5-16" value="" style="strokeWidth=2;html=1;shape=mxgraph.flowchart.decision;whiteSpace=wrap;" vertex="1" parent="1">
          <mxGeometry x="350" y="475" width="60" height="50" as="geometry" />
        </mxCell>
        <mxCell id="kCEidRXpe-iNgRJde4r5-17" style="edgeStyle=orthogonalEdgeStyle;rounded=0;orthogonalLoop=1;jettySize=auto;html=1;exitX=0.5;exitY=1;exitDx=0;exitDy=0;entryX=0.5;entryY=0;entryDx=0;entryDy=0;entryPerimeter=0;" edge="1" parent="1" source="kCEidRXpe-iNgRJde4r5-13" target="kCEidRXpe-iNgRJde4r5-16">
          <mxGeometry relative="1" as="geometry" />
        </mxCell>
        <mxCell id="kCEidRXpe-iNgRJde4r5-40" style="edgeStyle=orthogonalEdgeStyle;rounded=0;orthogonalLoop=1;jettySize=auto;html=1;exitX=0.5;exitY=1;exitDx=0;exitDy=0;entryX=0.5;entryY=0;entryDx=0;entryDy=0;" edge="1" parent="1" source="kCEidRXpe-iNgRJde4r5-19" target="kCEidRXpe-iNgRJde4r5-36">
          <mxGeometry relative="1" as="geometry" />
        </mxCell>
        <mxCell id="kCEidRXpe-iNgRJde4r5-19" value="Schedule Consultation" style="rounded=1;whiteSpace=wrap;html=1;glass=0;strokeWidth=1;shadow=0;" vertex="1" parent="1">
          <mxGeometry x="130" y="540" width="120" height="40" as="geometry" />
        </mxCell>
        <mxCell id="kCEidRXpe-iNgRJde4r5-20" style="edgeStyle=orthogonalEdgeStyle;rounded=0;orthogonalLoop=1;jettySize=auto;html=1;exitX=0;exitY=0.5;exitDx=0;exitDy=0;exitPerimeter=0;" edge="1" parent="1" source="kCEidRXpe-iNgRJde4r5-16">
          <mxGeometry relative="1" as="geometry">
            <mxPoint x="190" y="540" as="targetPoint" />
          </mxGeometry>
        </mxCell>
        <mxCell id="kCEidRXpe-iNgRJde4r5-21" value="Approved" style="edgeLabel;html=1;align=center;verticalAlign=middle;resizable=0;points=[];" vertex="1" connectable="0" parent="kCEidRXpe-iNgRJde4r5-20">
          <mxGeometry x="-0.1803" y="2" relative="1" as="geometry">
            <mxPoint as="offset" />
          </mxGeometry>
        </mxCell>
        <mxCell id="kCEidRXpe-iNgRJde4r5-23" style="edgeStyle=orthogonalEdgeStyle;rounded=0;orthogonalLoop=1;jettySize=auto;html=1;exitX=0.5;exitY=1;exitDx=0;exitDy=0;" edge="1" parent="1" source="kCEidRXpe-iNgRJde4r5-25" target="kCEidRXpe-iNgRJde4r5-33">
          <mxGeometry relative="1" as="geometry" />
        </mxCell>
        <mxCell id="kCEidRXpe-iNgRJde4r5-24" value="Exit Function" style="edgeLabel;html=1;align=center;verticalAlign=middle;resizable=0;points=[];" vertex="1" connectable="0" parent="kCEidRXpe-iNgRJde4r5-23">
          <mxGeometry x="-0.06" y="4" relative="1" as="geometry">
            <mxPoint as="offset" />
          </mxGeometry>
        </mxCell>
        <mxCell id="kCEidRXpe-iNgRJde4r5-25" value="Notify User" style="rounded=1;whiteSpace=wrap;html=1;glass=0;strokeWidth=1;shadow=0;" vertex="1" parent="1">
          <mxGeometry x="330" y="660" width="120" height="40" as="geometry" />
        </mxCell>
        <mxCell id="kCEidRXpe-iNgRJde4r5-42" style="edgeStyle=orthogonalEdgeStyle;rounded=0;orthogonalLoop=1;jettySize=auto;html=1;exitX=0;exitY=0.5;exitDx=0;exitDy=0;entryX=1;entryY=0.5;entryDx=0;entryDy=0;" edge="1" parent="1" source="kCEidRXpe-iNgRJde4r5-27" target="kCEidRXpe-iNgRJde4r5-25">
          <mxGeometry relative="1" as="geometry" />
        </mxCell>
        <mxCell id="kCEidRXpe-iNgRJde4r5-27" value="Request changes and resubmit&amp;nbsp;" style="rounded=1;whiteSpace=wrap;html=1;glass=0;strokeWidth=1;shadow=0;" vertex="1" parent="1">
          <mxGeometry x="590" y="657.5" width="125" height="45" as="geometry" />
        </mxCell>
        <mxCell id="kCEidRXpe-iNgRJde4r5-28" value="" style="strokeWidth=2;html=1;shape=mxgraph.flowchart.decision;whiteSpace=wrap;" vertex="1" parent="1">
          <mxGeometry x="470" y="550" width="60" height="50" as="geometry" />
        </mxCell>
        <mxCell id="kCEidRXpe-iNgRJde4r5-29" style="edgeStyle=orthogonalEdgeStyle;rounded=0;orthogonalLoop=1;jettySize=auto;html=1;exitX=0;exitY=0.5;exitDx=0;exitDy=0;exitPerimeter=0;entryX=0.5;entryY=0;entryDx=0;entryDy=0;" edge="1" parent="1" source="kCEidRXpe-iNgRJde4r5-28" target="kCEidRXpe-iNgRJde4r5-25">
          <mxGeometry relative="1" as="geometry">
            <mxPoint x="357" y="631" as="targetPoint" />
          </mxGeometry>
        </mxCell>
        <mxCell id="kCEidRXpe-iNgRJde4r5-30" value="Resubmit Ineligible" style="edgeLabel;html=1;align=center;verticalAlign=middle;resizable=0;points=[];" vertex="1" connectable="0" parent="kCEidRXpe-iNgRJde4r5-29">
          <mxGeometry x="-0.3485" y="-1" relative="1" as="geometry">
            <mxPoint as="offset" />
          </mxGeometry>
        </mxCell>
        <mxCell id="kCEidRXpe-iNgRJde4r5-31" style="edgeStyle=orthogonalEdgeStyle;rounded=0;orthogonalLoop=1;jettySize=auto;html=1;exitX=1;exitY=0.5;exitDx=0;exitDy=0;exitPerimeter=0;entryX=0.558;entryY=-0.025;entryDx=0;entryDy=0;entryPerimeter=0;" edge="1" parent="1" source="kCEidRXpe-iNgRJde4r5-28" target="kCEidRXpe-iNgRJde4r5-27">
          <mxGeometry relative="1" as="geometry" />
        </mxCell>
        <mxCell id="kCEidRXpe-iNgRJde4r5-32" value="Resubmit Eligible" style="edgeLabel;html=1;align=center;verticalAlign=middle;resizable=0;points=[];" vertex="1" connectable="0" parent="kCEidRXpe-iNgRJde4r5-31">
          <mxGeometry x="-0.5909" y="-3" relative="1" as="geometry">
            <mxPoint x="18" y="-3" as="offset" />
          </mxGeometry>
        </mxCell>
        <mxCell id="kCEidRXpe-iNgRJde4r5-33" value="" style="ellipse;shape=doubleEllipse;whiteSpace=wrap;html=1;aspect=fixed;" vertex="1" parent="1">
          <mxGeometry x="375" y="760" width="30" height="30" as="geometry" />
        </mxCell>
        <mxCell id="kCEidRXpe-iNgRJde4r5-41" style="edgeStyle=orthogonalEdgeStyle;rounded=0;orthogonalLoop=1;jettySize=auto;html=1;exitX=1;exitY=0.5;exitDx=0;exitDy=0;entryX=0;entryY=0.5;entryDx=0;entryDy=0;" edge="1" parent="1" source="kCEidRXpe-iNgRJde4r5-36" target="kCEidRXpe-iNgRJde4r5-25">
          <mxGeometry relative="1" as="geometry" />
        </mxCell>
        <mxCell id="kCEidRXpe-iNgRJde4r5-36" value="Update Consultation Status" style="rounded=1;whiteSpace=wrap;html=1;glass=0;strokeWidth=1;shadow=0;" vertex="1" parent="1">
          <mxGeometry x="130" y="660" width="120" height="40" as="geometry" />
        </mxCell>
      </root>
    </mxGraphModel>
  </diagram>
</mxfile>
